<svg width="32" height="32" viewBox="0 0 32 32" fill="none" xmlns="http://www.w3.org/2000/svg">
<path fill-rule="evenodd" clip-rule="evenodd" d="M4.00033 16C4.73671 16 5.33366 16.597 5.33366 17.3333C5.33366 17.8554 5.75394 18.8784 6.64673 19.8456C7.52505 20.7971 8.52918 21.3333 9.33366 21.3333H24.0003C23.9986 21.3333 23.9984 21.3335 24.0003 21.3333C24.0091 21.3327 24.056 21.329 24.1404 21.3104C24.2371 21.2891 24.3619 21.2526 24.5051 21.1954C24.7924 21.0805 25.1263 20.8928 25.4417 20.6089C26.039 20.0714 26.667 19.1032 26.667 17.3333C26.667 16.597 27.2639 16 28.0003 16C28.7367 16 29.3336 16.597 29.3336 17.3333C29.3336 19.8301 28.4061 21.5286 27.2256 22.5911C26.1122 23.5931 24.8005 24 24.0003 24H9.33366C7.47147 24 5.80894 22.8695 4.68725 21.6544C3.58004 20.4549 2.66699 18.8113 2.66699 17.3333C2.66699 16.597 3.26395 16 4.00033 16Z" fill="black"/>
<path fill-rule="evenodd" clip-rule="evenodd" d="M1.33301 15.9998C1.33301 15.2635 1.92996 14.6665 2.66634 14.6665L29.333 14.6665C30.0694 14.6665 30.6663 15.2635 30.6663 15.9998C30.6663 16.7362 30.0694 17.3332 29.333 17.3332L2.66634 17.3332C1.92996 17.3332 1.33301 16.7362 1.33301 15.9998Z" fill="black"/>
<path fill-rule="evenodd" clip-rule="evenodd" d="M10.0195 21.5232C10.651 21.9021 10.8557 22.7211 10.4769 23.3525L8.47686 26.6859C8.09799 27.3173 7.27898 27.5221 6.64754 27.1432C6.0161 26.7643 5.81135 25.9453 6.19021 25.3139L8.19021 21.9805C8.56908 21.3491 9.38809 21.1444 10.0195 21.5232Z" fill="black"/>
<path fill-rule="evenodd" clip-rule="evenodd" d="M21.9805 21.5232C21.349 21.9021 21.1443 22.7211 21.5231 23.3525L23.5231 26.6859C23.902 27.3173 24.721 27.5221 25.3525 27.1432C25.9839 26.7643 26.1887 25.9453 25.8098 25.3139L23.8098 21.9805C23.4309 21.3491 22.6119 21.1444 21.9805 21.5232Z" fill="black"/>
<path d="M7.99967 10.6668C7.99967 11.4032 7.40272 12.0002 6.66634 12.0002C5.92996 12.0002 5.33301 11.4032 5.33301 10.6668C5.33301 9.93045 5.92996 9.3335 6.66634 9.3335C7.40272 9.3335 7.99967 9.93045 7.99967 10.6668Z" fill="#C49368"/>
<path d="M13.3337 10.6668C13.3337 11.4032 12.7367 12.0002 12.0003 12.0002C11.2639 12.0002 10.667 11.4032 10.667 10.6668C10.667 9.93045 11.2639 9.3335 12.0003 9.3335C12.7367 9.3335 13.3337 9.93045 13.3337 10.6668Z" fill="#C49368"/>
<path d="M10.6667 5.33333C10.6667 6.06971 10.0697 6.66667 9.33333 6.66667C8.59695 6.66667 8 6.06971 8 5.33333C8 4.59695 8.59695 4 9.33333 4C10.0697 4 10.6667 4.59695 10.6667 5.33333Z" fill="#C49368"/>
<path fill-rule="evenodd" clip-rule="evenodd" d="M20 3.99984C20 3.26346 20.597 2.6665 21.3333 2.6665H28C28.7364 2.6665 29.3333 3.26346 29.3333 3.99984V15.9998H26.6667V5.33317H22.6667V7.33317H20V3.99984Z" fill="black"/>
<path fill-rule="evenodd" clip-rule="evenodd" d="M17.333 7.99984C17.333 7.26346 17.93 6.6665 18.6663 6.6665L23.9997 6.6665C24.7361 6.6665 25.333 7.26346 25.333 7.99984C25.333 8.73622 24.7361 9.33317 23.9997 9.33317L18.6663 9.33317C17.93 9.33317 17.333 8.73622 17.333 7.99984Z" fill="#C49368"/>
</svg>
