<svg width="24" height="24" viewBox="0 0 24 24" fill="none" xmlns="http://www.w3.org/2000/svg">
<g clip-path="url(#clip0)">
<path fill-rule="evenodd" clip-rule="evenodd" d="M6.81195 1.2525C7.22485 0.885717 7.85691 0.923101 8.22369 1.336L17.2767 11.5272C17.6435 11.9401 17.6061 12.5722 17.1932 12.939L9.71696 19.5802C9.30405 19.947 8.67199 19.9096 8.30521 19.4967L1.19214 11.4893C0.825359 11.0764 0.862743 10.4444 1.27564 10.0776L8.00425 4.10046L6.72845 2.66425C6.36166 2.25135 6.39905 1.61929 6.81195 1.2525ZM9.3325 5.5957L3.35151 10.9087L9.13633 17.4208L15.1173 12.1078L9.3325 5.5957Z" fill="black"/>
<path fill-rule="evenodd" clip-rule="evenodd" d="M18.2931 14.2928C18.645 13.941 19.2021 13.9014 19.6002 14.2001C20.8128 15.1097 21.8546 16.8438 22.0966 18.4098C22.2192 19.2034 22.1604 20.121 21.6163 20.8642C21.0445 21.6452 20.1128 22 19.0001 22C17.8917 22 16.9552 21.6449 16.4205 20.8152C15.9261 20.0481 15.9455 19.1238 16.099 18.3644C16.4077 16.8368 17.4208 15.165 18.2931 14.2928ZM19.0834 16.4844C18.6317 17.1527 18.211 18.0106 18.0594 18.7606C17.9476 19.3137 18.022 19.6082 18.1016 19.7317C18.1409 19.7927 18.2974 20 19.0001 20C19.6985 20 19.9223 19.7923 20.0026 19.6827C20.1105 19.5353 20.2003 19.2342 20.1201 18.7152C20.0052 17.9718 19.5919 17.1264 19.0834 16.4844Z" fill="black"/>
</g>
<defs>
<clipPath id="clip0">
<rect width="24" height="24" fill="white"/>
</clipPath>
</defs>
</svg>
