<svg width="32" height="32" viewBox="0 0 32 32" fill="none" xmlns="http://www.w3.org/2000/svg">
<path fill-rule="evenodd" clip-rule="evenodd" d="M6.66699 3.99984C6.66699 3.26346 7.26395 2.6665 8.00033 2.6665H22.667C23.4034 2.6665 24.0003 3.26346 24.0003 3.99984V29.3332C24.0003 30.0696 23.4034 30.6665 22.667 30.6665H8.00033C7.26395 30.6665 6.66699 30.0696 6.66699 29.3332V3.99984ZM9.33366 5.33317V27.9998H21.3337V5.33317H9.33366Z" fill="black"/>
<path d="M13.3337 18.6668C13.3337 19.4032 12.7367 20.0002 12.0003 20.0002C11.2639 20.0002 10.667 19.4032 10.667 18.6668C10.667 17.9304 11.2639 17.3335 12.0003 17.3335C12.7367 17.3335 13.3337 17.9304 13.3337 18.6668Z" fill="black"/>
<path d="M10.667 6.6665H20.0003V13.3332H10.667V6.6665Z" fill="#C49368"/>
</svg>
