<svg width="32" height="32" viewBox="0 0 32 32" fill="none" xmlns="http://www.w3.org/2000/svg">
<path d="M13.3012 6.95902L17.8335 3.33319C18.3204 2.94362 19.0124 2.94362 19.4993 3.33319L24.0316 6.95902C24.6988 7.49279 24.6988 8.50757 24.0316 9.04134L19.4993 12.6672C19.0124 13.0567 18.3204 13.0567 17.8335 12.6672L13.3012 9.04134C12.634 8.50757 12.634 7.49279 13.3012 6.95902Z" fill="#C49368"/>
<path fill-rule="evenodd" clip-rule="evenodd" d="M15.1997 2.93317C15.6737 2.57762 16.3256 2.57762 16.7997 2.93317L22.133 6.93317C22.4687 7.18498 22.6663 7.58016 22.6663 7.99984C22.6663 8.41951 22.4687 8.8147 22.133 9.0665L16.7997 13.0665C16.3256 13.4221 15.6737 13.4221 15.1997 13.0665L9.86634 9.0665C9.5306 8.8147 9.33301 8.41951 9.33301 7.99984C9.33301 7.58016 9.5306 7.18498 9.86634 6.93317L15.1997 2.93317ZM12.8886 7.99984L15.9997 10.3332L19.1108 7.99984L15.9997 5.6665L12.8886 7.99984Z" fill="black"/>
<path fill-rule="evenodd" clip-rule="evenodd" d="M20.5337 13.6002C21.0077 13.2446 21.6596 13.2446 22.1337 13.6002L27.467 17.6002C27.8027 17.852 28.0003 18.2472 28.0003 18.6668C28.0003 19.0865 27.8027 19.4817 27.467 19.7335L22.1337 23.7335C21.6596 24.0891 21.0077 24.0891 20.5337 23.7335L15.2003 19.7335C14.8646 19.4817 14.667 19.0865 14.667 18.6668C14.667 18.2472 14.8646 17.852 15.2003 17.6002L20.5337 13.6002ZM18.2225 18.6668L21.3337 21.0002L24.4448 18.6668L21.3337 16.3335L18.2225 18.6668Z" fill="black"/>
<path fill-rule="evenodd" clip-rule="evenodd" d="M9.86667 13.6002C10.3407 13.2446 10.9926 13.2446 11.4667 13.6002L16.8 17.6002C17.1357 17.852 17.3333 18.2472 17.3333 18.6668C17.3333 19.0865 17.1357 19.4817 16.8 19.7335L11.4667 23.7335C10.9926 24.0891 10.3407 24.0891 9.86667 23.7335L4.53333 19.7335C4.19759 19.4817 4 19.0865 4 18.6668C4 18.2472 4.19759 17.852 4.53333 17.6002L9.86667 13.6002ZM7.55556 18.6668L10.6667 21.0002L13.7778 18.6668L10.6667 16.3335L7.55556 18.6668Z" fill="black"/>
<path fill-rule="evenodd" clip-rule="evenodd" d="M15.1997 17.6002C15.6737 17.2446 16.3256 17.2446 16.7997 17.6002L22.133 21.6002C22.4687 21.852 22.6663 22.2472 22.6663 22.6668C22.6663 23.0865 22.4687 23.4817 22.133 23.7335L16.7997 27.7335C16.3256 28.0891 15.6737 28.0891 15.1997 27.7335L9.86634 23.7335C9.5306 23.4817 9.33301 23.0865 9.33301 22.6668C9.33301 22.2472 9.5306 21.852 9.86634 21.6002L15.1997 17.6002ZM12.8886 22.6668L15.9997 25.0002L19.1108 22.6668L15.9997 20.3335L12.8886 22.6668Z" fill="black"/>
</svg>
