<svg width="20" height="20" viewBox="0 0 20 20" fill="none" xmlns="http://www.w3.org/2000/svg">
<path fill-rule="evenodd" clip-rule="evenodd" d="M11.5303 2.4705C11.5303 2.01568 11.899 1.64697 12.3538 1.64697H17.295C17.7498 1.64697 18.1185 2.01568 18.1185 2.4705V7.41168C18.1185 7.8665 17.7498 8.23521 17.295 8.23521C16.8402 8.23521 16.4714 7.8665 16.4714 7.41168V3.29403H12.3538C11.899 3.29403 11.5303 2.92532 11.5303 2.4705Z" fill="white"/>
<path fill-rule="evenodd" clip-rule="evenodd" d="M2.47099 11.5293C2.92581 11.5293 3.29452 11.898 3.29452 12.3528V16.4705H7.41217C7.86699 16.4705 8.2357 16.8392 8.2357 17.294C8.2357 17.7488 7.86699 18.1175 7.41217 18.1175H2.47099C2.01617 18.1175 1.64746 17.7488 1.64746 17.294V12.3528C1.64746 11.898 2.01617 11.5293 2.47099 11.5293Z" fill="white"/>
<path fill-rule="evenodd" clip-rule="evenodd" d="M17.8766 1.88818C18.1982 2.20979 18.1982 2.73122 17.8766 3.05283L12.1119 8.81753C11.7903 9.13914 11.2689 9.13914 10.9473 8.81753C10.6257 8.49592 10.6257 7.97449 10.9473 7.65288L16.712 1.88818C17.0336 1.56657 17.555 1.56657 17.8766 1.88818Z" fill="white"/>
<path fill-rule="evenodd" clip-rule="evenodd" d="M8.81802 10.9473C9.13963 11.2689 9.13963 11.7903 8.81802 12.1119L3.05331 17.8766C2.73171 18.1982 2.21028 18.1982 1.88867 17.8766C1.56706 17.555 1.56706 17.0336 1.88867 16.712L7.65337 10.9473C7.97498 10.6257 8.49641 10.6257 8.81802 10.9473Z" fill="white"/>
</svg>
