<svg width="24" height="24" viewBox="0 0 24 24" fill="none" xmlns="http://www.w3.org/2000/svg">
<path d="M19.25 10.5H4.75C4.19772 10.5 3.75 10.9477 3.75 11.5V20C3.75 20.5523 4.19772 21 4.75 21H19.25C19.8023 21 20.25 20.5523 20.25 20V11.5C20.25 10.9477 19.8023 10.5 19.25 10.5Z" stroke="black" stroke-width="2"/>
<rect x="5" y="13" width="14" height="6" fill="#C49368"/>
<path d="M20 5.25H4C3.44772 5.25 3 5.69772 3 6.25V9.5C3 10.0523 3.44772 10.5 4 10.5H20C20.5523 10.5 21 10.0523 21 9.5V6.25C21 5.69772 20.5523 5.25 20 5.25Z" stroke="black" stroke-width="2"/>
</svg>
