<svg width="32" height="32" viewBox="0 0 32 32" fill="none" xmlns="http://www.w3.org/2000/svg">
<g clip-path="url(#clip0)">
<path fill-rule="evenodd" clip-rule="evenodd" d="M16.6863 2.85651C17.0879 3.09748 17.3337 3.53149 17.3337 3.99984V14.6665C17.3337 15.1589 17.0623 15.6113 16.6278 15.843L6.62778 21.1763C6.21453 21.3967 5.71594 21.3841 5.31433 21.1432C4.91272 20.9022 4.66699 20.4682 4.66699 19.9998V9.33317C4.66699 8.84076 4.93839 8.38843 5.37287 8.1567L15.3729 2.82337C15.7861 2.60297 16.2847 2.61555 16.6863 2.85651ZM7.33366 10.1332V17.7776L14.667 13.8665V6.22206L7.33366 10.1332Z" fill="black"/>
<path fill-rule="evenodd" clip-rule="evenodd" d="M15.3137 2.85651C14.9121 3.09748 14.6663 3.53149 14.6663 3.99984V14.6665C14.6663 15.1589 14.9377 15.6113 15.3722 15.843L25.3722 21.1763C25.7855 21.3967 26.2841 21.3841 26.6857 21.1432C27.0873 20.9022 27.333 20.4682 27.333 19.9998V9.33317C27.333 8.84076 27.0616 8.38843 26.6271 8.1567L16.6271 2.82337C16.2139 2.60297 15.7153 2.61555 15.3137 2.85651ZM24.6663 10.1332V17.7776L17.333 13.8665V6.22206L24.6663 10.1332Z" fill="black"/>
<path d="M17.2086 18.5727L26.9425 24.0001L17.2086 29.7824L7.12004 24.0001L17.2086 18.5727Z" fill="#C49368"/>
<path fill-rule="evenodd" clip-rule="evenodd" d="M4.85623 19.314C5.23509 18.6826 6.0541 18.4779 6.68554 18.8567L15.9996 24.4451L25.3136 18.8567C25.945 18.4779 26.764 18.6826 27.1429 19.314C27.5217 19.9455 27.317 20.7645 26.6855 21.1434L16.6855 27.1434C16.2633 27.3967 15.7358 27.3967 15.3136 27.1434L5.31356 21.1434C4.68212 20.7645 4.47736 19.9455 4.85623 19.314Z" fill="black"/>
</g>
<defs>
<clipPath id="clip0">
<rect width="32" height="32" fill="white"/>
</clipPath>
</defs>
</svg>
