<svg width="60" height="60" viewBox="0 0 60 60" fill="none" xmlns="http://www.w3.org/2000/svg">
<rect x="39.084" y="8.75" width="15.1669" height="42.049" rx="1.40057" stroke="white" stroke-width="1.5"/>
<rect x="22.416" y="35.632" width="15.1669" height="15.1669" rx="1.40057" stroke="white" stroke-width="1.5"/>
<rect x="5.75" y="35.632" width="15.1669" height="15.1669" rx="1.40057" stroke="white" stroke-width="1.5"/>
<path d="M11.3691 9.82507H14.7989C14.9635 9.82507 15.1022 9.94811 15.1218 10.1116L15.7798 15.595C15.8185 15.9173 15.9425 16.2235 16.1389 16.4819L19.7581 21.244C19.9208 21.4582 19.7681 21.7661 19.4991 21.7661H7.0992C6.83407 21.7661 6.6803 21.4659 6.83523 21.2508L10.2721 16.4773C10.4668 16.2069 10.5837 15.8884 10.6103 15.5563L11.0449 10.1244C11.0584 9.95537 11.1995 9.82507 11.3691 9.82507Z" stroke="white" stroke-width="1.5"/>
<rect x="7.90039" y="42.6213" width="10.8658" height="6.02698" rx="1.40057" stroke="white" stroke-width="1.5"/>
<path d="M41.5586 31.1185H43.4403" stroke="white" stroke-width="1.5" stroke-linecap="round"/>
<path d="M41.5586 38.1078H43.4403" stroke="white" stroke-width="1.5" stroke-linecap="round"/>
<path d="M24.3555 38.1078H26.2372" stroke="white" stroke-width="1.5" stroke-linecap="round"/>
<path d="M8.22656 37.5703H8.7642" stroke="white" stroke-width="1.5" stroke-linecap="round"/>
<path d="M11.4531 37.5703H11.9908" stroke="white" stroke-width="1.5" stroke-linecap="round"/>
<path d="M8.22656 40.2584H18.4418" stroke="white" stroke-width="1.5" stroke-linecap="round"/>
<path d="M8.22656 33.8066H11.4524" stroke="white" stroke-width="1.5" stroke-linecap="round"/>
<path d="M15.2129 33.8066H18.4387" stroke="white" stroke-width="1.5" stroke-linecap="round"/>
<path d="M24.3555 34.882H36.1836" stroke="white" stroke-width="1.5" stroke-linecap="round"/>
<path d="M39.2402 34.882L54 34.882" stroke="white" stroke-width="1.5" stroke-linecap="round"/>
<path d="M14.6777 37.5703H15.2154" stroke="white" stroke-width="1.5" stroke-linecap="round"/>
<path d="M17.9043 37.5703H18.4419" stroke="white" stroke-width="1.5" stroke-linecap="round"/>
<path d="M31.6133 35.1508C31.6133 34.9357 31.6133 30.7601 31.6133 28.6991H28.6562V29.7744" stroke="white" stroke-width="1.5" stroke-linecap="round" stroke-linejoin="round"/>
</svg>
