<svg width="60" height="60" viewBox="0 0 60 60" fill="none" xmlns="http://www.w3.org/2000/svg">
<rect x="34.75" y="11.75" width="18.5" height="42.5" rx="1.40057" stroke="white" stroke-width="1.5"/>
<rect x="6.75" y="39.75" width="2.5" height="14.5" rx="1.25" stroke="white" stroke-width="1.5"/>
<rect x="9.75" y="39.75" width="2.5" height="14.5" rx="1.25" stroke="white" stroke-width="1.5"/>
<rect x="12.75" y="39.75" width="2.5" height="14.5" rx="1.25" stroke="white" stroke-width="1.5"/>
<rect x="15.75" y="39.75" width="2.5" height="14.5" rx="1.25" stroke="white" stroke-width="1.5"/>
<rect x="18.75" y="39.75" width="2.5" height="14.5" rx="1.25" stroke="white" stroke-width="1.5"/>
<rect x="21.75" y="39.75" width="2.5" height="14.5" rx="1.25" stroke="white" stroke-width="1.5"/>
<path d="M38 37H39.8817" stroke="white" stroke-width="1.5" stroke-linecap="round"/>
<path d="M44 21V22" stroke="white" stroke-width="1.5" stroke-linecap="round"/>
<rect x="5.75" y="11.75" width="20.5" height="6.5" rx="1.40057" stroke="white" stroke-width="1.5"/>
<path d="M11.2837 20.5527C11.5889 20.2727 11.6094 19.7982 11.3294 19.493C11.0494 19.1878 10.5749 19.1673 10.2697 19.4473L11.2837 20.5527ZM10.7772 22.1818L10.2703 22.7346L10.7772 22.1818ZM10.245 23.2623C9.83754 23.3371 9.56787 23.7279 9.64263 24.1354C9.71738 24.5428 10.1083 24.8124 10.5157 24.7377L10.245 23.2623ZM10.2697 19.4473C10.0939 19.6086 9.87598 19.7998 9.71062 19.982C9.54154 20.1684 9.33848 20.4368 9.27202 20.7961C9.20075 21.1815 9.30889 21.5356 9.4933 21.8436C9.66899 22.1369 9.93699 22.429 10.2703 22.7346L11.2841 21.629C10.9905 21.3599 10.846 21.1827 10.7802 21.0728C10.7231 20.9775 10.7608 20.9944 10.747 21.0689C10.738 21.1174 10.7204 21.1014 10.8214 20.9901C10.9262 20.8747 11.0631 20.7551 11.2837 20.5527L10.2697 19.4473ZM10.2703 22.7346C10.2295 22.6972 10.2178 22.6687 10.2202 22.6739C10.2221 22.6779 10.2304 22.6984 10.2379 22.7389C10.2534 22.8223 10.2556 22.9381 10.2356 23.0575C10.215 23.1798 10.1788 23.2611 10.1541 23.2979C10.132 23.3307 10.1561 23.2786 10.245 23.2623L10.5157 24.7377C10.9348 24.6608 11.2232 24.3965 11.3995 24.1339C11.5731 23.8753 11.6692 23.5778 11.7148 23.3061C11.761 23.0316 11.7634 22.7383 11.7128 22.4656C11.6658 22.2116 11.5538 21.8764 11.2841 21.629L10.2703 22.7346Z" fill="white"/>
<path d="M16.2837 20.5527C16.5889 20.2727 16.6094 19.7982 16.3294 19.493C16.0494 19.1878 15.5749 19.1673 15.2697 19.4473L16.2837 20.5527ZM15.7772 22.1818L15.2703 22.7346L15.7772 22.1818ZM15.245 23.2623C14.8375 23.3371 14.5679 23.7279 14.6426 24.1354C14.7174 24.5428 15.1083 24.8124 15.5157 24.7377L15.245 23.2623ZM15.2697 19.4473C15.0939 19.6086 14.876 19.7998 14.7106 19.982C14.5415 20.1684 14.3385 20.4368 14.272 20.7961C14.2008 21.1815 14.3089 21.5356 14.4933 21.8436C14.669 22.1369 14.937 22.429 15.2703 22.7346L16.2841 21.629C15.9905 21.3599 15.846 21.1827 15.7802 21.0728C15.7231 20.9775 15.7608 20.9944 15.747 21.0689C15.738 21.1174 15.7204 21.1014 15.8214 20.9901C15.9262 20.8747 16.0631 20.7551 16.2837 20.5527L15.2697 19.4473ZM15.2703 22.7346C15.2295 22.6972 15.2178 22.6687 15.2202 22.6739C15.2221 22.6779 15.2304 22.6984 15.2379 22.7389C15.2534 22.8223 15.2556 22.9381 15.2356 23.0575C15.215 23.1798 15.1788 23.2611 15.1541 23.2979C15.132 23.3307 15.1561 23.2786 15.245 23.2623L15.5157 24.7377C15.9348 24.6608 16.2232 24.3965 16.3995 24.1339C16.5731 23.8753 16.6692 23.5778 16.7148 23.3061C16.761 23.0316 16.7634 22.7383 16.7128 22.4656C16.6658 22.2116 16.5538 21.8764 16.2841 21.629L15.2703 22.7346Z" fill="white"/>
<path d="M21.2837 20.5527C21.5889 20.2727 21.6094 19.7982 21.3294 19.493C21.0494 19.1878 20.5749 19.1673 20.2697 19.4473L21.2837 20.5527ZM20.7772 22.1818L20.2703 22.7346L20.7772 22.1818ZM20.245 23.2623C19.8375 23.3371 19.5679 23.7279 19.6426 24.1354C19.7174 24.5428 20.1083 24.8124 20.5157 24.7377L20.245 23.2623ZM20.2697 19.4473C20.0939 19.6086 19.876 19.7998 19.7106 19.982C19.5415 20.1684 19.3385 20.4368 19.272 20.7961C19.2008 21.1815 19.3089 21.5356 19.4933 21.8436C19.669 22.1369 19.937 22.429 20.2703 22.7346L21.2841 21.629C20.9905 21.3599 20.846 21.1827 20.7802 21.0728C20.7231 20.9775 20.7608 20.9944 20.747 21.0689C20.738 21.1174 20.7204 21.1014 20.8214 20.9901C20.9262 20.8747 21.0631 20.7551 21.2837 20.5527L20.2697 19.4473ZM20.2703 22.7346C20.2295 22.6972 20.2178 22.6687 20.2202 22.6739C20.2221 22.6779 20.2304 22.6984 20.2379 22.7389C20.2534 22.8223 20.2556 22.9381 20.2356 23.0575C20.215 23.1798 20.1788 23.2611 20.1541 23.2979C20.132 23.3307 20.1561 23.2786 20.245 23.2623L20.5157 24.7377C20.9348 24.6608 21.2232 24.3965 21.3995 24.1339C21.5731 23.8753 21.6692 23.5778 21.7148 23.3061C21.761 23.0316 21.7634 22.7383 21.7128 22.4656C21.6658 22.2116 21.5538 21.8764 21.2841 21.629L20.2703 22.7346Z" fill="white"/>
<path d="M6 42H2" stroke="white" stroke-width="1.5" stroke-linecap="round"/>
<path d="M6 51H2" stroke="white" stroke-width="1.5" stroke-linecap="round"/>
</svg>
