<svg width="542" height="160" viewBox="0 0 542 160" fill="none" xmlns="http://www.w3.org/2000/svg">
<path d="M0 73.1132C0 66.0639 3.09909 59.3711 8.47477 54.8111L56.9748 13.6697C65.9308 6.07249 79.0692 6.07249 88.0252 13.6697L136.525 54.8111C141.901 59.3711 145 66.0639 145 73.1132V136C145 149.255 134.255 160 121 160H24C10.7452 160 0 149.255 0 136V73.1132Z" fill="#C49368"/>
<path d="M41 114C53 123.5 82 126.5 93.5 118.5" stroke="white" stroke-width="8" stroke-linecap="round"/>
<path d="M186.145 114H221.215V103.326H199.392V94.9401H219.5V84.2665H199.392V75.8802H221.31V65.2066H186.145V114ZM239.61 114.572C244.375 114.572 247.972 112.952 250.188 108.854H250.474V114H262.767V88.9362C262.767 82.1699 256.359 76.9285 245.899 76.9285C234.964 76.9285 229.579 82.6464 229.127 89.3174H241.23C241.539 87.054 243.207 85.9819 245.709 85.9819C247.996 85.9819 249.616 87.0302 249.616 88.9362V89.0315C249.616 91.1519 247.281 91.819 241.134 92.2717C233.582 92.8197 227.697 95.8693 227.697 103.898C227.697 111.189 232.605 114.572 239.61 114.572ZM243.898 106.281C241.659 106.281 240.086 105.185 240.086 103.136C240.086 101.254 241.42 99.8004 244.47 99.3239C246.566 98.9903 248.33 98.5615 249.711 97.9897V101.039C249.711 104.375 246.876 106.281 243.898 106.281ZM303.843 89.3174C303.51 81.5743 297.077 76.9285 286.499 76.9285C276.04 76.9285 269.583 81.2169 269.631 88.8409C269.583 94.6065 273.324 98.2994 280.781 99.6098L287.261 100.753C290.12 101.278 291.407 102.04 291.454 103.422C291.407 104.947 289.667 105.804 287.261 105.804C284.283 105.804 282.186 104.518 281.829 102.183H268.773C269.488 109.688 275.968 114.667 287.166 114.667C297.291 114.667 304.749 109.735 304.796 101.897C304.749 96.4887 301.127 93.3438 293.646 91.9858L286.213 90.6516C283.425 90.1513 282.639 89.1506 282.687 88.0785C282.639 86.5537 284.521 85.696 286.785 85.696C289.382 85.696 291.55 87.0779 291.74 89.3174H303.843ZM319.182 127.675C328.379 127.675 332.691 123.053 334.716 117.05L348.058 77.405H334.239L328.236 102.755H327.854L321.946 77.405H308.223L321.088 115.62L320.802 116.287C319.73 118.169 317.371 118.193 314.131 117.05L311.272 126.389C313.321 127.199 316.156 127.675 319.182 127.675Z" fill="#323232"/>
<path d="M367.657 114H390.624C401.227 114 407.778 108.211 407.778 100.182C407.778 93.2962 402.704 88.7933 396.438 88.555V88.0785C402.084 86.9587 405.872 82.7894 405.872 77.405C405.872 69.9716 399.964 65.2066 388.814 65.2066H367.657V114ZM380.904 103.422V93.1294H387.289C391.315 93.1294 393.769 95.0354 393.769 98.4662C393.769 101.73 391.554 103.422 387.098 103.422H380.904ZM380.904 84.9336V75.5943H386.527C389.814 75.5943 392.245 77.262 392.245 80.2639C392.245 83.2659 389.814 84.9336 386.336 84.9336H380.904ZM437.734 97.9897C437.758 101.611 435.661 103.803 432.397 103.803C429.085 103.803 427.179 101.611 427.156 97.9897V77.405H414.004V100.753C414.028 108.759 419.079 114.476 426.774 114.476C432.23 114.476 436.424 111.713 438.02 107.043H438.401V114H450.885V77.405H437.734V97.9897ZM458.916 114H472.067V77.405H458.916V114ZM465.492 73.593C469.065 73.593 471.972 70.9008 471.972 67.5891C471.972 64.2774 469.065 61.5852 465.492 61.5852C461.918 61.5852 459.011 64.2774 459.011 67.5891C459.011 70.9008 461.918 73.593 465.492 73.593ZM493.261 65.2066H480.11V114H493.261V65.2066ZM514.55 114.476C519.697 114.476 523.223 111.713 524.747 107.996H525.033V114H538.089V65.2066H524.938V83.79H524.747C523.318 80.0733 519.887 76.9285 514.455 76.9285C507.212 76.9285 500.16 82.4558 500.16 95.7025C500.16 108.377 506.736 114.476 514.55 114.476ZM519.411 104.375C515.789 104.375 513.693 101.135 513.693 95.7025C513.693 90.2704 515.789 87.0302 519.411 87.0302C523.032 87.0302 525.224 90.2704 525.224 95.7025C525.224 101.039 523.032 104.375 519.411 104.375Z" fill="#C49368"/>
<rect x="31" y="70" width="30" height="20" rx="7" fill="white"/>
<rect x="80" y="62" width="28" height="28" rx="7" fill="white"/>
</svg>
